<svg width="32" height="32" viewBox="0 0 32 32" xmlns="http://www.w3.org/2000/svg">
  <!-- Background paper -->
  <rect x="6" y="4" width="20" height="26" fill="#ffffff" stroke="#cccccc" stroke-width="1"/>
  
  <!-- Binding holes -->
  <circle cx="9" cy="8" r="1" fill="#e0e0e0"/>
  <circle cx="9" cy="12" r="1" fill="#e0e0e0"/>
  <circle cx="9" cy="16" r="1" fill="#e0e0e0"/>
  <circle cx="9" cy="20" r="1" fill="#e0e0e0"/>
  <circle cx="9" cy="24" r="1" fill="#e0e0e0"/>
  
  <!-- Lines on paper -->
  <line x1="12" y1="8" x2="23" y2="8" stroke="#e0e0e0" stroke-width="0.5"/>
  <line x1="12" y1="12" x2="23" y2="12" stroke="#e0e0e0" stroke-width="0.5"/>
  <line x1="12" y1="16" x2="23" y2="16" stroke="#e0e0e0" stroke-width="0.5"/>
  <line x1="12" y1="20" x2="23" y2="20" stroke="#e0e0e0" stroke-width="0.5"/>
  <line x1="12" y1="24" x2="23" y2="24" stroke="#e0e0e0" stroke-width="0.5"/>
  
  <!-- Pencil -->
  <rect x="3" y="14" width="8" height="2" fill="#f4d03f" transform="rotate(45 7 15)"/>
  <rect x="1.5" y="15" width="3" height="1" fill="#e67e22" transform="rotate(45 3 15.5)"/>
  <circle cx="2.5" cy="15.5" r="0.5" fill="#2c3e50"/>
  
  <!-- Shadow -->
  <rect x="7" y="29" width="20" height="2" fill="#000000" opacity="0.1"/>
</svg>