
<svg width="32" height="32" viewBox="0 0 32 32" xmlns="http://www.w3.org/2000/svg">
  <!-- Clipboard background -->
  <rect x="5" y="4" width="20" height="26" fill="#ffffff" stroke="#bbb" stroke-width="1" rx="1"/>
  
  <!-- Clipboard top -->
  <rect x="3" y="2" width="24" height="4" fill="#e8e8e8" stroke="#bbb" stroke-width="1" rx="1"/>
  <rect x="12" y="1" width="6" height="2" fill="#ccc" rx="1"/>
  
  <!-- Checkboxes and text -->
  <rect x="8" y="9" width="3" height="3" fill="none" stroke="#666" stroke-width="1"/>
  <path d="M9 10.5 L10 11.5 L11.5 10" stroke="#27ae60" stroke-width="1.5" fill="none"/>
  <line x1="13" y1="10.5" x2="22" y2="10.5" stroke="#333" stroke-width="1"/>
  
  <rect x="8" y="14" width="3" height="3" fill="none" stroke="#666" stroke-width="1"/>
  <line x1="13" y1="15.5" x2="20" y2="15.5" stroke="#333" stroke-width="1"/>
  
  <rect x="8" y="19" width="3" height="3" fill="none" stroke="#666" stroke-width="1"/>
  <path d="M9 20.5 L10 21.5 L11.5 20" stroke="#27ae60" stroke-width="1.5" fill="none"/>
  <line x1="13" y1="20.5" x2="18" y2="20.5" stroke="#333" stroke-width="1"/>
  
  <rect x="8" y="24" width="3" height="3" fill="none" stroke="#666" stroke-width="1"/>
  <line x1="13" y1="25.5" x2="21" y2="25.5" stroke="#333" stroke-width="1"/>
</svg>